<svg width="500" height="500" viewBox="0 0 500 500" fill="none" xmlns="http://www.w3.org/2000/svg">
<rect x="15" y="15" width="470" height="470" stroke="black" stroke-width="30"/>
<line x1="17" y1="255" x2="475" y2="255" stroke="black" stroke-width="30"/>
<path d="M132.135 213H49.575C46.8517 213 44.845 212.427 43.555 211.28C42.4083 209.99 41.835 207.983 41.835 205.26V65.94C41.835 63.2167 42.4083 61.2817 43.555 60.135C44.845 58.845 46.8517 58.2 49.575 58.2H118.16C132.207 58.2 142.598 60.9233 149.335 66.37C156.072 71.6733 159.44 79.915 159.44 91.095V101.415C159.44 107.435 158.365 112.38 156.215 116.25C154.208 119.977 151.055 122.772 146.755 124.635C155.928 125.495 162.737 128.648 167.18 134.095C171.623 139.542 173.845 147.497 173.845 157.96V177.74C173.845 189.78 170.405 198.667 163.525 204.4C156.788 210.133 146.325 213 132.135 213ZM90.21 94.75V117.97H108.485C111.208 117.97 113.215 117.253 114.505 115.82C115.938 114.387 116.655 112.237 116.655 109.37V103.35C116.655 100.483 115.938 98.3333 114.505 96.9C113.215 95.4667 111.208 94.75 108.485 94.75H90.21ZM90.21 151.08V176.45H118.16C120.883 176.45 122.89 175.733 124.18 174.3C125.613 172.867 126.33 170.717 126.33 167.85V159.465C126.33 156.598 125.613 154.52 124.18 153.23C122.89 151.797 120.883 151.08 118.16 151.08H90.21ZM265.267 213H230.437C227.714 213 225.707 212.427 224.417 211.28C223.27 209.99 222.697 207.983 222.697 205.26V99.695H191.092C188.369 99.695 186.362 99.1217 185.072 97.975C183.925 96.685 183.352 94.6783 183.352 91.955V65.94C183.352 63.2167 183.925 61.2817 185.072 60.135C186.362 58.845 188.369 58.2 191.092 58.2H304.612C307.335 58.2 309.27 58.845 310.417 60.135C311.707 61.2817 312.352 63.2167 312.352 65.94V91.955C312.352 94.6783 311.707 96.685 310.417 97.975C309.27 99.1217 307.335 99.695 304.612 99.695H273.007V205.26C273.007 207.983 272.362 209.99 271.072 211.28C269.925 212.427 267.99 213 265.267 213ZM450.436 213H341.001C338.277 213 336.271 212.427 334.981 211.28C333.834 209.99 333.261 207.983 333.261 205.26V65.94C333.261 63.2167 333.834 61.2817 334.981 60.135C336.271 58.845 338.277 58.2 341.001 58.2H374.326C377.049 58.2 378.984 58.845 380.131 60.135C381.421 61.2817 382.066 63.2167 382.066 65.94V172.365H411.521V137.535C411.521 134.812 412.094 132.877 413.241 131.73C414.531 130.44 416.537 129.795 419.261 129.795H450.436C453.159 129.795 455.094 130.44 456.241 131.73C457.531 132.877 458.176 134.812 458.176 137.535V205.26C458.176 207.983 457.531 209.99 456.241 211.28C455.094 212.427 453.159 213 450.436 213Z" fill="black"/>
<path fill-rule="evenodd" clip-rule="evenodd" d="M485 250H10V477H485V250ZM36.705 444H104.645C118.405 444 129.227 440.775 137.11 434.325C145.137 427.732 149.15 418.343 149.15 406.16V383.585C149.15 371.545 146.068 362.945 139.905 357.785C133.742 352.625 125.643 349.328 115.61 347.895L83.575 343.595C81.7117 343.452 80.2783 342.735 79.275 341.445C78.2717 340.155 77.77 338.578 77.77 336.715C77.77 334.852 78.2717 333.347 79.275 332.2C80.2783 330.91 81.7117 330.265 83.575 330.265H133.67C136.393 330.265 138.328 329.692 139.475 328.545C140.765 327.255 141.41 325.248 141.41 322.525V296.94C141.41 294.217 140.765 292.282 139.475 291.135C138.328 289.845 136.393 289.2 133.67 289.2H73.47C59.5667 289.2 48.6733 292.497 40.79 299.09C32.9067 305.54 28.965 314.857 28.965 327.04V349.615C28.965 361.655 31.975 370.255 37.995 375.415C44.1583 380.575 52.2567 383.872 62.29 385.305L94.54 389.82C96.4033 389.963 97.765 390.608 98.625 391.755C99.6283 392.902 100.13 394.693 100.13 397.13C100.13 398.85 99.6283 400.355 98.625 401.645C97.765 402.792 96.4033 403.365 94.54 403.365H36.705C33.9817 403.365 31.975 404.01 30.685 405.3C29.5383 406.447 28.965 408.382 28.965 411.105V436.26C28.965 438.983 29.5383 440.99 30.685 442.28C31.975 443.427 33.9817 444 36.705 444ZM221.259 355.42V327.9H237.384C241.111 327.9 243.619 328.903 244.909 330.91C246.199 332.773 246.844 335.138 246.844 338.005V345.315C246.844 348.182 246.199 350.618 244.909 352.625C243.619 354.488 241.111 355.42 237.384 355.42H221.259ZM180.409 444H213.519C216.242 444 218.177 443.427 219.324 442.28C220.614 440.99 221.259 438.983 221.259 436.26V394.12H251.359C254.369 394.12 256.447 394.908 257.594 396.485C258.884 397.918 259.529 400.212 259.529 403.365V436.26C259.529 438.983 260.102 440.99 261.249 442.28C262.539 443.427 264.546 444 267.269 444H300.594C303.317 444 305.252 443.427 306.399 442.28C307.689 440.99 308.334 438.983 308.334 436.26V390.68C308.334 381.65 305.897 374.412 301.024 368.965C296.294 363.518 290.059 360.365 282.319 359.505C286.762 357.642 289.844 354.632 291.564 350.475C293.427 346.175 294.359 341.015 294.359 334.995V325.105C294.359 314.498 291.277 305.898 285.114 299.305C279.094 292.568 268.057 289.2 252.004 289.2H180.409C177.686 289.2 175.679 289.845 174.389 291.135C173.242 292.282 172.669 294.217 172.669 296.94V436.26C172.669 438.983 173.242 440.99 174.389 442.28C175.679 443.427 177.686 444 180.409 444ZM366.04 444H421.94C424.663 444 426.885 443.498 428.605 442.495C430.468 441.492 431.901 439.628 432.905 436.905L453.975 384.23C455.265 381.077 456.34 378.353 457.2 376.06C458.06 373.623 458.776 371.33 459.35 369.18C459.923 367.03 460.281 364.808 460.425 362.515C460.711 360.078 460.855 357.14 460.855 353.7V296.94C460.855 294.217 460.21 292.282 458.92 291.135C457.773 289.845 455.838 289.2 453.115 289.2H419.36C416.636 289.2 414.63 289.845 413.34 291.135C412.193 292.282 411.62 294.217 411.62 296.94V356.065C411.62 357.498 411.476 358.932 411.19 360.365C410.903 361.798 410.473 363.303 409.9 364.88L399.795 395.195C399.365 396.628 398.863 397.632 398.29 398.205C397.716 398.635 396.856 398.85 395.71 398.85H393.345C392.198 398.85 391.338 398.635 390.765 398.205C390.191 397.632 389.69 396.628 389.26 395.195L379.155 365.095C378.581 363.518 378.151 362.013 377.865 360.58C377.578 359.147 377.435 357.713 377.435 356.28V296.94C377.435 294.217 376.718 292.282 375.285 291.135C373.851 289.845 371.773 289.2 369.05 289.2H334.865C332.141 289.2 330.135 289.845 328.845 291.135C327.698 292.282 327.125 294.217 327.125 296.94V353.7C327.125 357.14 327.196 360.078 327.34 362.515C327.626 364.808 328.056 367.03 328.63 369.18C329.203 371.33 329.92 373.623 330.78 376.06C331.64 378.353 332.715 381.077 334.005 384.23L355.075 436.905C356.078 439.628 357.44 441.492 359.16 442.495C361.023 443.498 363.316 444 366.04 444Z" fill="black"/>
</svg>
